<?xml version="1.0" encoding="UTF-8"?>
<svg width="700pt" height="700pt" version="1.1" viewBox="0 0 700 700" xmlns="http://www.w3.org/2000/svg" fill="#fff">
 <g>
  <path d="m419.35 280c0 38.301-31.047 69.348-69.348 69.348s-69.348-31.047-69.348-69.348 31.047-69.348 69.348-69.348 69.348 31.047 69.348 69.348"/>
  <path d="m419.35 98.512c0 38.301-31.047 69.348-69.348 69.348s-69.348-31.047-69.348-69.348c0-38.297 31.047-69.344 69.348-69.344s69.348 31.047 69.348 69.344"/>
  <path d="m419.35 461.49c0 38.297-31.047 69.344-69.348 69.344s-69.348-31.047-69.348-69.344c0-38.301 31.047-69.348 69.348-69.348s69.348 31.047 69.348 69.348"/>
 </g>
</svg>
